<svg xmlns="http://www.w3.org/2000/svg" xmlns:xlink="http://www.w3.org/1999/xlink" contentStyleType="text/css" data-diagram-type="ACTIVITY" height="729.6875px" preserveAspectRatio="none" style="width:992px;height:729px;background:#FFFFFF;" version="1.1" viewBox="0 0 992 729" width="992.1875px" zoomAndPan="magnify"><title>Vigencia y Regulaci&#243;n de Certificados Electr&#243;nicos (Ley 6/2020)</title><defs/><g><g class="title" data-source-line="7"><text fill="#000000" font-family="Arial" font-size="21.875" font-weight="bold" lengthAdjust="spacing" textLength="664.9872" x="161.7176" y="51.7685">Vigencia y Regulaci&#243;n de Certificados Electr&#243;nicos (Ley 6/2020)</text></g><ellipse cx="415.5586" cy="89.2166" fill="#222222" rx="15.625" ry="15.625" style="stroke:#222222;stroke-width:1.5625;"/><path d="M581.5819,131.3271 L581.5819,158.0437 L550.3319,164.2937 L581.5819,170.5437 L581.5819,197.2603 A0,0 0 0 0 581.5819,197.2603 L974.3599,197.2603 A0,0 0 0 0 974.3599,197.2603 L974.3599,146.9521 L958.7349,131.3271 L581.5819,131.3271 A0,0 0 0 0 581.5819,131.3271" fill="#FAFAFA" style="stroke:#181818;stroke-width:0.7813;"/><path d="M958.7349,131.3271 L958.7349,146.9521 L974.3599,146.9521 L958.7349,131.3271" fill="#FAFAFA" style="stroke:#181818;stroke-width:0.7813;"/><text fill="#000000" font-family="Arial" font-size="21.875" lengthAdjust="spacing" textLength="257.7576" x="590.9569" y="159.6581">- Vigencia m&#225;xima: 5 a&#241;os</text><text fill="#000000" font-family="Arial" font-size="21.875" lengthAdjust="spacing" textLength="359.9655" x="590.9569" y="184.8122">- Renovaci&#243;n encadenada solo 1 vez</text><rect fill="#F1F1F1" height="56.4041" rx="19.5313" ry="19.5313" style="stroke:#181818;stroke-width:0.7813;" width="269.5465" x="280.7854" y="136.0916"/><text fill="#000000" font-family="Arial" font-size="21.875" lengthAdjust="spacing" textLength="238.2965" x="296.4104" y="172.2351">Certificados electr&#243;nicos</text><polygon fill="#F1F1F1" points="205.7968,228.5103,625.3204,228.5103,644.0704,247.2603,625.3204,266.0103,205.7968,266.0103,187.0468,247.2603,205.7968,228.5103" style="stroke:#181818;stroke-width:0.7813;"/><text fill="#000000" font-family="Arial" font-size="21.875" lengthAdjust="spacing" textLength="419.5236" x="205.7968" y="255.2017">Autoridad de Certificaci&#243;n decide vigencia?</text><text fill="#000000" font-family="Arial" font-size="21.875" lengthAdjust="spacing" textLength="20.668" x="166.3788" y="242.6247">S&#237;</text><text fill="#000000" font-family="Arial" font-size="21.875" lengthAdjust="spacing" textLength="27.9633" x="644.0704" y="242.6247">No</text><rect fill="#F1F1F1" height="56.4041" rx="19.5313" ry="19.5313" style="stroke:#181818;stroke-width:0.7813;" width="308.4686" x="17.1875" y="281.6353"/><text fill="#000000" font-family="Arial" font-size="21.875" lengthAdjust="spacing" textLength="277.2186" x="32.8125" y="317.7788">Determina vigencia concreta</text><rect fill="#F1F1F1" height="56.4041" rx="19.5313" ry="19.5313" style="stroke:#181818;stroke-width:0.7813;" width="275.6454" x="521.8727" y="281.6353"/><text fill="#000000" font-family="Arial" font-size="21.875" lengthAdjust="spacing" textLength="244.3954" x="537.4977" y="317.7788">Se aplica m&#225;ximo 5 a&#241;os</text><polygon fill="#F1F1F1" points="415.5586,347.4144,434.3086,366.1644,415.5586,384.9144,396.8086,366.1644,415.5586,347.4144" style="stroke:#181818;stroke-width:0.7813;"/><rect fill="none" height="155.304" style="stroke:#000000;stroke-width:2.3438;" width="672.4655" x="298.6031" y="400.5394"/><path d="M469.8524,400.5394 L469.8524,414.756 L454.2274,430.381 L298.6031,430.381" fill="none" style="stroke:#000000;stroke-width:2.3438;"/><text fill="#000000" font-family="Arial" font-size="21.875" lengthAdjust="spacing" textLength="155.6244" x="303.2906" y="422.6204">DNI_electronico</text><path d="M548.1392,446.006 L548.1392,485.2997 L516.8892,491.5497 L548.1392,497.7997 L548.1392,537.0934 A0,0 0 0 0 548.1392,537.0934 L955.4436,537.0934 A0,0 0 0 0 955.4436,537.0934 L955.4436,461.631 L939.8186,446.006 L548.1392,446.006 A0,0 0 0 0 548.1392,446.006" fill="#FAFAFA" style="stroke:#181818;stroke-width:0.7813;"/><path d="M939.8186,446.006 L939.8186,461.631 L955.4436,461.631 L939.8186,446.006" fill="#FAFAFA" style="stroke:#181818;stroke-width:0.7813;"/><text fill="#000000" font-family="Arial" font-size="21.875" lengthAdjust="spacing" textLength="175.1068" x="557.5142" y="474.337">- Vigencia: 2 a&#241;os</text><text fill="#000000" font-family="Arial" font-size="21.875" lengthAdjust="spacing" textLength="374.4919" x="557.5142" y="499.4911">- Renovaci&#243;n seg&#250;n organismo emisor</text><text fill="#000000" font-family="Arial" font-size="21.875" lengthAdjust="spacing" textLength="310.0845" x="557.5142" y="524.6452">- Equilibrio seguridad/usabilidad</text><rect fill="#F1F1F1" height="56.4041" rx="19.5313" ry="19.5313" style="stroke:#181818;stroke-width:0.7813;" width="202.6611" x="314.2281" y="463.3476"/><text fill="#000000" font-family="Arial" font-size="21.875" lengthAdjust="spacing" textLength="171.4111" x="329.8531" y="499.4911">Certificados DNIe</text><path d="M586.4632,582.3288 L586.4632,609.0454 L555.2132,615.2954 L586.4632,621.5454 L586.4632,648.262 A0,0 0 0 0 586.4632,648.262 L913.488,648.262 A0,0 0 0 0 913.488,648.262 L913.488,597.9538 L897.863,582.3288 L586.4632,582.3288 A0,0 0 0 0 586.4632,582.3288" fill="#FAFAFA" style="stroke:#181818;stroke-width:0.7813;"/><path d="M897.863,582.3288 L897.863,597.9538 L913.488,597.9538 L897.863,582.3288" fill="#FAFAFA" style="stroke:#181818;stroke-width:0.7813;"/><text fill="#000000" font-family="Arial" font-size="21.875" lengthAdjust="spacing" textLength="294.2123" x="595.8382" y="610.6598">- Por incumplimiento o riesgos</text><text fill="#000000" font-family="Arial" font-size="21.875" lengthAdjust="spacing" textLength="262.6923" x="595.8382" y="635.8139">- Reguladas en Ley 6/2020</text><rect fill="#F1F1F1" height="56.4041" rx="19.5313" ry="19.5313" style="stroke:#181818;stroke-width:0.7813;" width="279.3091" x="275.9041" y="587.0934"/><text fill="#000000" font-family="Arial" font-size="21.875" lengthAdjust="spacing" textLength="248.0591" x="291.5291" y="623.2368">Revocaci&#243;n y suspensi&#243;n</text><ellipse cx="415.5586" cy="696.6995" fill="none" rx="17.1875" ry="17.1875" style="stroke:#222222;stroke-width:1.5625;"/><ellipse cx="415.5586" cy="696.6995" fill="#222222" rx="9.375" ry="9.375" style="stroke:#222222;stroke-width:1.5625;"/><line style="stroke:#181818;stroke-width:1.5625;" x1="415.5586" x2="415.5586" y1="104.8416" y2="136.0916"/><polygon fill="#181818" points="409.3086,120.4666,415.5586,136.0916,421.8086,120.4666,415.5586,126.7166" style="stroke:#181818;stroke-width:1.5625;"/><line style="stroke:#181818;stroke-width:1.5625;" x1="187.0468" x2="171.4218" y1="247.2603" y2="247.2603"/><line style="stroke:#181818;stroke-width:1.5625;" x1="171.4218" x2="171.4218" y1="247.2603" y2="281.6353"/><polygon fill="#181818" points="165.1718,266.0103,171.4218,281.6353,177.6718,266.0103,171.4218,272.2603" style="stroke:#181818;stroke-width:1.5625;"/><line style="stroke:#181818;stroke-width:1.5625;" x1="644.0704" x2="659.6954" y1="247.2603" y2="247.2603"/><line style="stroke:#181818;stroke-width:1.5625;" x1="659.6954" x2="659.6954" y1="247.2603" y2="281.6353"/><polygon fill="#181818" points="653.4454,266.0103,659.6954,281.6353,665.9454,266.0103,659.6954,272.2603" style="stroke:#181818;stroke-width:1.5625;"/><line style="stroke:#181818;stroke-width:1.5625;" x1="171.4218" x2="171.4218" y1="338.0394" y2="366.1644"/><line style="stroke:#181818;stroke-width:1.5625;" x1="171.4218" x2="396.8086" y1="366.1644" y2="366.1644"/><polygon fill="#181818" points="381.1836,359.9144,396.8086,366.1644,381.1836,372.4144,387.4336,366.1644" style="stroke:#181818;stroke-width:1.5625;"/><line style="stroke:#181818;stroke-width:1.5625;" x1="659.6954" x2="659.6954" y1="338.0394" y2="366.1644"/><line style="stroke:#181818;stroke-width:1.5625;" x1="659.6954" x2="434.3086" y1="366.1644" y2="366.1644"/><polygon fill="#181818" points="449.9336,359.9144,434.3086,366.1644,449.9336,372.4144,443.6836,366.1644" style="stroke:#181818;stroke-width:1.5625;"/><line style="stroke:#181818;stroke-width:1.5625;" x1="415.5586" x2="415.5586" y1="192.4957" y2="228.5103"/><polygon fill="#181818" points="409.3086,212.8853,415.5586,228.5103,421.8086,212.8853,415.5586,219.1353" style="stroke:#181818;stroke-width:1.5625;"/><line style="stroke:#181818;stroke-width:1.5625;" x1="415.5586" x2="415.5586" y1="384.9144" y2="463.3476"/><polygon fill="#181818" points="409.3086,447.7226,415.5586,463.3476,421.8086,447.7226,415.5586,453.9726" style="stroke:#181818;stroke-width:1.5625;"/><line style="stroke:#181818;stroke-width:1.5625;" x1="415.5586" x2="415.5586" y1="519.7517" y2="587.0934"/><polygon fill="#181818" points="409.3086,571.4684,415.5586,587.0934,421.8086,571.4684,415.5586,577.7184" style="stroke:#181818;stroke-width:1.5625;"/><line style="stroke:#181818;stroke-width:1.5625;" x1="415.5586" x2="415.5586" y1="643.4975" y2="679.512"/><polygon fill="#181818" points="409.3086,663.887,415.5586,679.512,421.8086,663.887,415.5586,670.137" style="stroke:#181818;stroke-width:1.5625;"/><!--SRC=[RLBBZXD13BptL_YO7D0c4SiXEQ0LkqX8A4A9n1LvUpmJYnbxw4SWY_WOFe03uiPrVWnFc2GJnAtRLNQNgpf-P6anO0EDYlfTq8OWXKmkdf6umq8_irHGOXt7ID4op6zdumgLcElqMYMjqKRT1SRw__YMdmZcpvrBd6g2zroHU4Oum8QgNAFdxfTO0xoYaBXaRoeYFDJaKp24lTqcR-a0BsuMiyLiwbnC699powi66ZUid6WY25pjadjsURFfld_X1fTm2zZzr6ZOXaJtWmWZOK621KBKMc4EUtfo90NquvpZ4YPtEMdW0eihoQSbF5jrFpptSWffHmAJRVTZwW2MzvGeD2nufe1NyO4IhXoPvp1Pwv6v9S2sji63P3qfNlLok7JEV3P3MGNkrsy-_DrU- -NXQp_WoXjZqCgg8rC0BhOiOJ7OqLV7XaIgkjy26YeKZgQ26euQZho7JvbhVWoiFIqVFRd94H-jQaVZd8txPc5jQAyddmuGSsn9Od_x9wjt6e35vyRMRvWaAQY15AiXhlxF56Y12rn-nIYacBHrVm00]--></g></svg>